<svg xmlns="http://www.w3.org/2000/svg" width="192" height="192" viewBox="0 0 192 192">
  <defs>
    <linearGradient id="grad" x1="0%" y1="0%" x2="100%" y2="100%">
      <stop offset="0%" style="stop-color:#f59e0b"/>
      <stop offset="100%" style="stop-color:#ef4444"/>
    </linearGradient>
  </defs>
  <rect width="192" height="192" rx="40" fill="url(#grad)"/>
  <path d="M96 48c-17.7 0-32 14.3-32 32v16H56c-4.4 0-8 3.6-8 8v48c0 4.4 3.6 8 8 8h80c4.4 0 8-3.6 8-8v-48c0-4.4-3.6-8-8-8h-8V80c0-17.7-14.3-32-32-32zm0 16c8.8 0 16 7.2 16 16v16H80V80c0-8.8 7.2-16 16-16zm0 56c6.6 0 12 5.4 12 12s-5.4 12-12 12-12-5.4-12-12 5.4-12 12-12z" fill="white"/>
</svg>
